<svg width="24" height="24" viewBox="0 0 24 24" fill="none" xmlns="http://www.w3.org/2000/svg">
<path d="M3.00001 17H21C21.2549 17.0003 21.5 17.0979 21.6854 17.2728C21.8707 17.4478 21.9822 17.687 21.9972 17.9414C22.0121 18.1958 21.9293 18.4464 21.7657 18.6418C21.6022 18.8373 21.3701 18.9629 21.117 18.993L21 19H3.00001C2.74513 18.9997 2.49997 18.9021 2.31464 18.7272C2.1293 18.5522 2.01777 18.313 2.00283 18.0586C1.9879 17.8042 2.07068 17.5536 2.23427 17.3582C2.39786 17.1627 2.62991 17.0371 2.88301 17.007L3.00001 17H21H3.00001ZM3.00001 11L21 10.998C21.2549 10.9983 21.5 11.0959 21.6854 11.2708C21.8707 11.4458 21.9822 11.685 21.9972 11.9394C22.0121 12.1938 21.9293 12.4444 21.7657 12.6398C21.6022 12.8353 21.3701 12.9609 21.117 12.991L21 12.998L3.00001 13C2.74513 12.9997 2.49997 12.9021 2.31464 12.7272C2.1293 12.5522 2.01777 12.313 2.00283 12.0586C1.9879 11.8042 2.07068 11.5536 2.23427 11.3582C2.39786 11.1627 2.62991 11.0371 2.88301 11.007L3.00001 11L21 10.998L3.00001 11ZM3.00001 5H21C21.2549 5.00028 21.5 5.09788 21.6854 5.27285C21.8707 5.44782 21.9822 5.68695 21.9972 5.94139C22.0121 6.19584 21.9293 6.44638 21.7657 6.64183C21.6022 6.83729 21.3701 6.9629 21.117 6.993L21 7H3.00001C2.74513 6.99972 2.49997 6.90212 2.31464 6.72715C2.1293 6.55218 2.01777 6.31305 2.00283 6.05861C1.9879 5.80416 2.07068 5.55362 2.23427 5.35817C2.39786 5.16271 2.62991 5.0371 2.88301 5.007L3.00001 5H21H3.00001Z" fill="#707991"/>
</svg>
